<?xml version="1.0" encoding="UTF-8"?>
<svg width="316px" height="59px" viewBox="0 0 316 59" version="1.1" xmlns="http://www.w3.org/2000/svg" xmlns:xlink="http://www.w3.org/1999/xlink">
    <!-- Generator: Sketch 50.2 (55047) - http://www.bohemiancoding.com/sketch -->
    <title>artworld logo</title>
    <desc>Created with Sketch.</desc>
    <defs></defs>
    <g id="artworld-designs" stroke="none" stroke-width="1" fill="none" fill-rule="evenodd">
        <g id="Home" transform="translate(-182.000000, -23.000000)">
            <g id="Header" transform="translate(0.000000, -1.000000)">
                <g id="artworld-logo" transform="translate(182.000000, 24.000000)">
                    <g id="art" fill="#00AA9E">
                        <path d="M12.0975,46.64 C9.92148912,46.64 7.9268424,46.202671 6.1135,45.328 C4.3001576,44.453329 2.87083856,43.2693408 1.8255,41.776 C0.78016144,40.2826592 0.2575,38.640009 0.2575,36.848 C0.2575,33.9466522 1.4308216,31.600009 3.7775,29.808 C6.1241784,28.015991 9.34547952,26.8000032 13.4415,26.16 L22.2095,24.88 L22.2095,23.536 C22.2095,21.7013242 21.7401714,20.3146714 20.8015,19.376 C19.8628286,18.4373286 18.3695102,17.968 16.3215,17.968 C14.913493,17.968 13.7828376,18.2239974 12.9295,18.736 C12.0761624,19.2480026 11.382836,19.770664 10.8495,20.304 L9.7935,21.36 C9.62283248,21.8720026 9.30283568,22.128 8.8335,22.128 L3.8415,22.128 C3.45749808,22.128 3.12683472,22.0000013 2.8495,21.744 C2.57216528,21.4879987 2.4335,21.1466688 2.4335,20.72 C2.47616688,19.653328 2.99882832,18.4480067 4.0015,17.104 C5.00417168,15.7599933 6.55082288,14.5866717 8.6415,13.584 C10.7321771,12.5813283 13.3134846,12.08 16.3855,12.08 C21.4201918,12.08 25.0894885,13.2106554 27.3935,15.472 C29.6975115,17.7333446 30.8495,20.6986483 30.8495,24.368 L30.8495,44.464 C30.8495,44.8906688 30.7108347,45.2533318 30.4335,45.552 C30.1561653,45.8506682 29.7828357,46 29.3135,46 L24.0015,46 C23.5748312,46 23.2121682,45.8506682 22.9135,45.552 C22.6148318,45.2533318 22.4655,44.8906688 22.4655,44.464 L22.4655,41.968 C21.5268286,43.3333402 20.2041752,44.453329 18.4975,45.328 C16.7908248,46.202671 14.6575128,46.64 12.0975,46.64 Z M14.2735,40.496 C16.6201784,40.496 18.5401592,39.7280077 20.0335,38.192 C21.5268408,36.6559923 22.2735,34.4373478 22.2735,31.536 L22.2735,30.256 L15.8735,31.28 C10.9668088,32.0480038 8.5135,33.6906541 8.5135,36.208 C8.5135,37.5733402 9.07882768,38.6293296 10.2095,39.376 C11.3401723,40.1226704 12.6948254,40.496 14.2735,40.496 Z M40.586125,46 C40.1594562,46 39.7967932,45.8506682 39.498125,45.552 C39.1994568,45.2533318 39.050125,44.8906688 39.050125,44.464 L39.050125,14.32 C39.050125,13.8506643 39.1994568,13.4666682 39.498125,13.168 C39.7967932,12.8693318 40.1594562,12.72 40.586125,12.72 L45.834125,12.72 C46.3034607,12.72 46.6874568,12.8693318 46.986125,13.168 C47.2847932,13.4666682 47.434125,13.8506643 47.434125,14.32 L47.434125,16.944 C49.567469,14.1279859 52.6394383,12.72 56.650125,12.72 L59.338125,12.72 C59.8074607,12.72 60.1807903,12.8586653 60.458125,13.136 C60.7354597,13.4133347 60.874125,13.7866643 60.874125,14.256 L60.874125,18.928 C60.874125,19.3546688 60.7354597,19.7173318 60.458125,20.016 C60.1807903,20.3146682 59.8074607,20.464 59.338125,20.464 L54.282125,20.464 C52.2767816,20.464 50.6981308,21.0399942 49.546125,22.192 C48.3941192,23.3440058 47.818125,24.9226566 47.818125,26.928 L47.818125,44.464 C47.818125,44.8906688 47.6687932,45.2533318 47.370125,45.552 C47.0714568,45.8506682 46.7087938,46 46.282125,46 L40.586125,46 Z M80.97875,46 C77.0960639,46 74.1734265,44.9866768 72.21075,42.96 C70.2480735,40.9333232 69.26675,37.957353 69.26675,34.032 L69.26675,19.568 L64.21075,19.568 C63.7840812,19.568 63.4214182,19.4186682 63.12275,19.12 C62.8240818,18.8213318 62.67475,18.4586688 62.67475,18.032 L62.67475,14.256 C62.67475,13.8293312 62.8240818,13.4666682 63.12275,13.168 C63.4214182,12.8693318 63.7840812,12.72 64.21075,12.72 L69.26675,12.72 L69.26675,2.096 C69.26675,1.62666432 69.4160818,1.25333472 69.71475,0.976 C70.0134182,0.69866528 70.3760812,0.56 70.80275,0.56 L76.11475,0.56 C76.5840857,0.56 76.9574153,0.69866528 77.23475,0.976 C77.5120847,1.25333472 77.65075,1.62666432 77.65075,2.096 L77.65075,12.72 L85.65075,12.72 C86.0774188,12.72 86.4400818,12.8693318 86.73875,13.168 C87.0374182,13.4666682 87.18675,13.8293312 87.18675,14.256 L87.18675,18.032 C87.18675,18.4586688 87.0374182,18.8213318 86.73875,19.12 C86.4400818,19.4186682 86.0774188,19.568 85.65075,19.568 L77.65075,19.568 L77.65075,33.328 C77.65075,35.1626758 77.9707468,36.5493286 78.61075,37.488 C79.2507532,38.4266714 80.2960761,38.896 81.74675,38.896 L86.22675,38.896 C86.6960857,38.896 87.0694153,39.0346653 87.34675,39.312 C87.6240847,39.5893347 87.76275,39.9626643 87.76275,40.432 L87.76275,44.464 C87.76275,44.8906688 87.6240847,45.2533318 87.34675,45.552 C87.0694153,45.8506682 86.6960857,46 86.22675,46 L80.97875,46 Z"></path>
                    </g>
                    <g id="world" transform="translate(91.000000, 12.000000)" fill="#4B85C8">
                        <path d="M9.763375,46 C9.03803804,46 8.45137724,45.7973354 8.003375,45.392 C7.55537276,44.9866646 7.28870876,44.4853363 7.203375,43.888 L0.355375,2.928 C0.31270812,2.84266624 0.291375,2.71466752 0.291375,2.544 C0.291375,2.20266496 0.43004028,1.89333472 0.707375,1.616 C0.98470972,1.33866528 1.29403996,1.2 1.635375,1.2 L10.019375,1.2 C11.2567145,1.2 11.9393744,1.69066176 12.067375,2.672 L15.971375,26.864 L20.387375,12.848 C20.72871,11.6959942 21.432703,11.12 22.499375,11.12 L27.299375,11.12 C28.366047,11.12 29.07004,11.6959942 29.411375,12.848 L33.827375,26.8 L37.795375,2.672 C37.8807088,2.15999744 38.0727068,1.78666784 38.371375,1.552 C38.6700432,1.31733216 39.1393718,1.2 39.779375,1.2 L48.163375,1.2 C48.5473769,1.2 48.8673737,1.33866528 49.123375,1.616 C49.3793763,1.89333472 49.507375,2.20266496 49.507375,2.544 L49.507375,2.928 L42.659375,43.888 C42.5740412,44.4853363 42.2967107,44.9866646 41.827375,45.392 C41.3580393,45.7973354 40.7820451,46 40.099375,46 L33.635375,46 C32.9527049,46 32.4193769,45.829335 32.035375,45.488 C31.6513731,45.146665 31.3953756,44.7626688 31.267375,44.336 L24.931375,26.608 L18.595375,44.336 C18.4247075,44.7626688 18.1473769,45.146665 17.763375,45.488 C17.3793731,45.829335 16.8460451,46 16.163375,46 L9.763375,46 Z" id="Path"></path>
                        <path d="M75.116,46.64 C70.123975,46.64 66.0173494,45.6373434 62.796,43.632 C59.5746506,41.6266566 57.3880058,38.6400198 56.236,34.672 L53.868,35.568 C53.526665,35.6960006 53.2706675,35.76 53.1,35.76 C52.7159981,35.76 52.4066678,35.6426678 52.172,35.408 C51.9373322,35.1733322 51.82,34.8640019 51.82,34.48 L51.82,29.424 C51.82,28.8693306 51.9266656,28.4640013 52.14,28.208 C52.3533344,27.9519987 52.7159974,27.7173344 53.228,27.504 L55.148,26.736 L55.084,23.152 C55.084,22.0426611 55.1266662,20.3786778 55.212,18.16 C55.4253344,12.5279718 57.302649,8.18668192 60.844,5.136 C64.385351,2.08531808 69.1426368,0.56 75.116,0.56 C79.724023,0.56 83.627984,1.5199904 86.828,3.44 C90.028016,5.3600096 92.2679936,8.1333152 93.548,11.76 L96.172,10.736 C96.513335,10.6079994 96.7479994,10.544 96.876,10.544 C97.2600019,10.544 97.5799987,10.6613322 97.836,10.896 C98.0920013,11.1306678 98.22,11.4399981 98.22,11.824 L98.22,16.816 C98.22,17.3706694 98.1133344,17.7759987 97.9,18.032 C97.6866656,18.2880013 97.3240026,18.5226656 96.812,18.736 L95.02,19.44 C95.0626669,20.3786714 95.084,21.7866573 95.084,23.664 C95.084,26.1813459 95.0626669,28.0373274 95.02,29.232 C94.8066656,34.9493619 92.9506842,39.2799853 89.452,42.224 C85.9533158,45.1680147 81.174697,46.64 75.116,46.64 Z M82.22,16.176 C81.8359981,14.1279898 81.0253395,12.6133382 79.788,11.632 C78.5506605,10.6506618 76.9933427,10.16 75.116,10.16 C72.8973222,10.16 71.1266733,10.8319933 69.804,12.176 C68.4813267,13.5200067 67.7773338,15.5786528 67.692,18.352 C67.6066662,19.2053376 67.564,20.3786592 67.564,21.872 L82.22,16.176 Z M75.116,37.04 C77.3346778,37.04 79.1053267,36.3680067 80.428,35.024 C81.7506733,33.6799933 82.4546662,31.6213472 82.54,28.848 C82.6253338,26.7573229 82.6466669,25.2426714 82.604,24.304 L67.756,30.128 C68.0546682,32.4746784 68.833327,34.2133277 70.092,35.344 C71.350673,36.4746723 73.0253229,37.04 75.116,37.04 Z" id="Combined-Shape"></path>
                        <path d="M104.820625,46 C104.393956,46 104.020627,45.8400016 103.700625,45.52 C103.380623,45.1999984 103.220625,44.8266688 103.220625,44.4 L103.220625,2.864 C103.220625,2.39466432 103.369957,2.0000016 103.668625,1.68 C103.967293,1.3599984 104.351289,1.2 104.820625,1.2 L122.420625,1.2 C128.052653,1.2 132.457942,2.4799872 135.636625,5.04 C138.815308,7.6000128 140.404625,11.2053101 140.404625,15.856 C140.404625,18.8426816 139.711299,21.3813229 138.324625,23.472 C136.937951,25.5626771 135.028637,27.1839942 132.596625,28.336 L141.236625,43.952 C141.364626,44.2080013 141.428625,44.4426656 141.428625,44.656 C141.428625,44.997335 141.300626,45.3066653 141.044625,45.584 C140.788624,45.8613347 140.468627,46 140.084625,46 L131.060625,46 C129.823285,46 128.948628,45.4240058 128.436625,44.272 L121.396625,30.384 L115.252625,30.384 L115.252625,44.4 C115.252625,44.8693357 115.092627,45.2533318 114.772625,45.552 C114.452623,45.8506682 114.057961,46 113.588625,46 L104.820625,46 Z M122.356625,20.976 C124.191301,20.976 125.58862,20.5173379 126.548625,19.6 C127.50863,18.6826621 127.988625,17.4133414 127.988625,15.792 C127.988625,14.1706586 127.50863,12.8693382 126.548625,11.888 C125.58862,10.9066618 124.191301,10.416 122.356625,10.416 L115.252625,10.416 L115.252625,20.976 L122.356625,20.976 Z" id="Combined-Shape"></path>
                        <path d="M149.30925,46 C148.882581,46 148.509252,45.8400016 148.18925,45.52 C147.869248,45.1999984 147.70925,44.8266688 147.70925,44.4 L147.70925,2.8 C147.70925,2.33066432 147.869248,1.94666816 148.18925,1.648 C148.509252,1.34933184 148.882581,1.2 149.30925,1.2 L158.26925,1.2 C158.738586,1.2 159.122582,1.34933184 159.42125,1.648 C159.719918,1.94666816 159.86925,2.33066432 159.86925,2.8 L159.86925,35.952 L179.06925,35.952 C179.538586,35.952 179.933248,36.1119984 180.25325,36.432 C180.573252,36.7520016 180.73325,37.1466643 180.73325,37.616 L180.73325,44.4 C180.73325,44.8693357 180.573252,45.2533318 180.25325,45.552 C179.933248,45.8506682 179.538586,46 179.06925,46 L149.30925,46 Z" id="Path"></path>
                        <path d="M187.717875,46 C187.291206,46 186.917877,45.8400016 186.597875,45.52 C186.277873,45.1999984 186.117875,44.8266688 186.117875,44.4 L186.117875,2.864 C186.117875,2.39466432 186.267207,2.0000016 186.565875,1.68 C186.864543,1.3599984 187.248539,1.2 187.717875,1.2 L204.549875,1.2 C210.864573,1.2 215.771191,2.70398496 219.269875,5.712 C222.768559,8.72001504 224.603207,13.0399718 224.773875,18.672 C224.816542,19.9093395 224.837875,21.5519898 224.837875,23.6 C224.837875,25.6480102 224.816542,27.2693274 224.773875,28.464 C224.347206,40.1547251 217.712606,46 204.869875,46 L187.717875,46 Z M204.549875,36.4 C207.237888,36.4 209.221869,35.7600064 210.501875,34.48 C211.781881,33.1999936 212.464541,31.1520141 212.549875,28.336 C212.635209,27.0986605 212.677875,25.4986765 212.677875,23.536 C212.677875,21.5733235 212.635209,19.9946726 212.549875,18.8 C212.464541,16.0693197 211.728549,14.0533398 210.341875,12.752 C208.955201,11.4506602 206.917888,10.8 204.229875,10.8 L198.149875,10.8 L198.149875,36.4 L204.549875,36.4 Z" id="Combined-Shape"></path>
                    </g>
                </g>
            </g>
        </g>
    </g>
</svg>